PathFileType	4	(X/Y/Z)	C:\Users\WrightLab\Desktop\Jo\P1_boxCal2.trc
DataRate	CameraRate	NumFrames	NumMarkers	Units	OrigDataRate	OrigDataStartFrame	OrigNumFrames
100.00	100.00	       63	19	mm	100.00	104	       825
Frame#	Time	Headset_Front			Headset_Back			Headset_Left			Headset_Right			Left_Shoulder			Right_Shoulder			Sternum			C7			Left Elbow			Right Elbow			Left Wrist			Right Wrist			Left ASIS			Right ASIS			S2			Left Knee			Right Knee			Left Ankle			Right Ankle			
		X1	Y1	Z1	X2	Y2	Z2	X3	Y3	Z3	X4	Y4	Z4	X5	Y5	Z5	X6	Y6	Z6	X7	Y7	Z7	X8	Y8	Z8	X9	Y9	Z9	X10	Y10	Z10	X11	Y11	Z11	X12	Y12	Z12	X13	Y13	Z13	X14	Y14	Z14	X15	Y15	Z15	X16	Y16	Z16	X17	Y17	Z17	X18	Y18	Z18	X19	Y19	Z19	

104	1.030																																																										
105	1.040																																																										
106	1.050																																																										
107	1.060																																																										
108	1.070																																																										
109	1.080																																																										
110	1.090																																																										
111	1.100																																																										
112	1.110																																																										
113	1.120																																																										
114	1.130																																																										
115	1.140																																																										
116	1.150																																																										
117	1.160																																																										
118	1.170																																																										
119	1.180																																																										
120	1.190																																																										
121	1.200																																																										
122	1.210																																																										
123	1.220																																																										
124	1.230																																																										
125	1.240																																																										
126	1.250																																																										
127	1.260																																																										
128	1.270																																																										
129	1.280																																																										
130	1.290																																																										
131	1.300																																																										
132	1.310																																																										
133	1.320																																																										
134	1.330																																																										
135	1.340																																																										
136	1.350																																																										
137	1.360																																																										
138	1.370																																																										
139	1.380																																																										
140	1.390																																																										
141	1.400																																																										
142	1.410																																																										
143	1.420																																																										
144	1.430																																																										
145	1.440																																																										
146	1.450																																																										
147	1.460																																																										
148	1.470																																																										
149	1.480																																																										
150	1.490																																																										
151	1.500																																																										
152	1.510																																																										
153	1.520																																																										
154	1.530																																																										
155	1.540																																																										
156	1.550																																																										
157	1.560																																																										
158	1.570																																																										
159	1.580	-408.99500	1346.59436	-489.78601	-409.46414	1510.02380	-753.79828	-299.15350	1428.80762	-649.11932	-518.06799	1393.16382	-588.85266	-222.21460	1253.26160	-752.18439	-584.19440	1254.73303	-687.44275	-407.00861	1141.45129	-598.84326	-414.05753	1272.87085	-841.88269	-152.20529	933.15552	-791.22400	-701.23547	996.06384	-719.61810	-78.14912	757.88965	-713.11072	-736.26910	761.00476	-638.61011	-514.88556	871.17834	-589.55518	-313.90088	862.39343	-593.76141	-419.06146	884.64642	-900.44049	-575.72192	422.93127	-710.60168	-249.09154	450.50729	-600.23639	-530.29712	66.72499	-770.06311	-248.39204	78.89219	-567.90228	
160	1.590	-408.47092	1345.21863	-486.94547	-409.18454	1509.58423	-750.54401	-299.17886	1428.20105	-645.27515	-517.72406	1391.28247	-584.94843	-221.14095	1252.42603	-747.14453	-583.31561	1254.29126	-684.47278	-406.74420	1141.67224	-594.67950	-412.78500	1272.00635	-838.67786	-150.77855	932.25482	-787.31085	-700.73059	994.85077	-716.46783	-77.24148	756.56390	-709.72968	-734.47339	760.06744	-634.52795	-514.70154	871.35291	-585.47034	-313.58865	861.78870	-588.77435	-417.80331	883.71912	-895.31219	-576.58606	422.69928	-707.61694	-249.84070	447.37399	-598.25507	-530.30481	66.68359	-770.05420	-249.21962	78.89193	-562.72119	
161	1.600	-408.57251	1342.90588	-483.62961	-408.83264	1508.57141	-745.79254	-298.81903	1427.35486	-641.12433	-517.33392	1389.95435	-581.75098	-220.82268	1250.83093	-741.89368	-582.72266	1253.62524	-682.20673	-405.13031	1139.22888	-590.43414	-411.37451	1271.13208	-835.69495	-149.60756	931.54822	-783.52667	-698.57690	993.95294	-712.26422	-76.23820	755.56897	-706.35962	-731.99243	758.97266	-630.10065	-515.39282	870.38171	-580.96631	-313.39899	861.18347	-582.72729	-416.32776	882.58459	-890.53314	-577.06561	422.55826	-704.26953	-250.42682	444.67294	-595.30292	-530.51129	66.56803	-769.82623	-250.35529	77.64847	-560.80994	
162	1.610	-408.37305	1340.99451	-480.68817	-408.28180	1508.26001	-741.65045	-298.51392	1426.81970	-637.34821	-517.11523	1387.52710	-578.15979	-219.10005	1250.24902	-738.52405	-581.63385	1252.67432	-679.45117	-405.45630	1138.71387	-587.91174	-409.66956	1269.90735	-831.88104	-148.96751	930.94666	-779.43207	-697.47260	993.26953	-709.26093	-75.12203	754.55414	-702.52747	-729.68243	757.29242	-625.63928	-514.99225	870.07581	-577.30389	-313.53040	860.15326	-576.98663	-415.23166	880.86279	-884.86011	-578.12531	421.95514	-700.68011	-250.41225	441.37842	-591.77716	-530.57703	66.64607	-769.44214	-249.89044	76.59516	-563.37543	
163	1.620	-409.67047	1338.29175	-482.28790	-407.59326	1508.70996	-738.08801	-297.76230	1426.24768	-633.32367	-516.87903	1386.68860	-575.85864	-217.16031	1249.46118	-735.32959	-580.68616	1252.09204	-676.26660	-404.78409	1139.49194	-583.97089	-407.87939	1269.27368	-828.40106	-147.58910	929.29962	-774.65033	-695.80798	991.43652	-705.62366	-74.19279	753.62836	-698.84515	-727.01184	756.58643	-622.45776	-515.03656	870.30127	-572.78339	-312.84177	859.30725	-572.03180	-413.62189	879.75635	-880.47339	-579.08514	422.23602	-698.10046	-250.70483	439.59998	-588.09637	-530.65894	66.62688	-769.45636	-250.47990	76.77299	-565.10175	
164	1.630	-409.12540	1337.05530	-477.69751	-406.80264	1508.96680	-733.50586	-297.09094	1426.29993	-628.66937	-516.66302	1385.63770	-573.07947	-215.86549	1248.49048	-729.83783	-579.76630	1251.57800	-674.46405	-404.26660	1140.09119	-580.93713	-405.94791	1268.91602	-825.72345	-145.36215	928.39935	-770.18982	-694.88824	990.20398	-702.77509	-72.78465	752.49146	-694.35358	-724.67377	755.55042	-618.31537	-515.26459	869.82233	-567.98114	-312.81454	859.17578	-567.17682	-411.56342	878.63739	-876.34076	-579.88470	421.80960	-695.16687	-250.78734	438.06927	-583.88171	-531.15851	65.53757	-769.00177	-250.92085	75.76829	-565.93958	
165	1.640	-409.36234	1335.85864	-476.36624	-405.84512	1509.51343	-729.21503	-296.65005	1426.67822	-624.59375	-515.72815	1385.19153	-569.59509	-214.22137	1248.26733	-726.89636	-579.37103	1251.61560	-672.51660	-404.03561	1139.78406	-577.63971	-404.10275	1268.79236	-821.92444	-144.46964	927.89917	-766.40308	-692.84900	989.74023	-699.32953	-71.62915	751.81531	-689.81171	-722.59918	754.39612	-614.43677	-515.20288	869.78601	-563.83771	-312.83789	859.21594	-561.60461	-410.10571	877.67065	-871.72638	-580.01190	421.45361	-692.32880	-251.55533	438.24841	-578.50873	-531.07074	66.12806	-767.96930	-251.36351	75.51529	-564.76514	
166	1.650	-408.72772	1336.05737	-470.62747	-404.72672	1509.97449	-725.09424	-295.36725	1427.35815	-620.28772	-514.73248	1384.85547	-565.71930	-213.38106	1247.78149	-722.45947	-578.86890	1252.14111	-670.23706	-403.02576	1139.23499	-573.91101	-402.48926	1268.87292	-818.70972	-142.97198	927.34875	-762.63159	-691.92963	989.50836	-696.83820	-70.41908	751.54205	-685.31201	-719.36902	754.26868	-611.63312	-515.85437	870.37427	-561.18921	-313.22110	858.89270	-556.58209	-407.96970	877.35461	-867.77832	-579.81146	421.63138	-690.19183	-249.92183	441.33395	-573.11676	-531.23029	66.82108	-768.24316	-250.30797	76.07767	-563.35461	
